<?xml version="1.0" encoding="UTF-8"?>
<svg version="1.1" xmlns="http://www.w3.org/2000/svg" width="1024" height="1024">
<path d="M0 0 C0.87495117 0.27666504 1.74990234 0.55333008 2.65136719 0.83837891 C16.89350358 5.35364987 30.42422719 11.8145976 44 18 C44 18.66 44 19.32 44 20 C44.82757812 20.23847656 45.65515625 20.47695313 46.5078125 20.72265625 C50.60729204 22.22213031 54.13895064 24.20311146 57.875 26.4375 C58.61459961 26.87707031 59.35419922 27.31664062 60.11621094 27.76953125 C89.75120676 45.60342589 119.30765892 69.05683139 140.84375 96.2890625 C143.05606347 99.0704856 145.36608462 101.74676854 147.6875 104.4375 C194.87516905 161.25232873 220.18989462 237.00538855 220.25 310.5 C220.25101212 311.63101639 220.25101212 311.63101639 220.25204468 312.78488159 C220.12640748 402.3618518 181.43299569 483.83872135 119.25 546.875 C115.30753506 550.76114402 111.2141069 554.41290554 107 558 C106.08992187 558.79921875 105.17984375 559.5984375 104.2421875 560.421875 C45.6768353 611.47836617 -31.81684662 640.19198315 -109.34301758 640.18530273 C-112.1643805 640.18748214 -114.98534684 640.20567782 -117.80664062 640.22460938 C-135.02091042 640.28084851 -151.38765697 638.19238183 -168.25 634.875 C-169.02114136 634.72449188 -169.79228271 634.57398376 -170.58679199 634.41891479 C-185.95870456 631.39753208 -201.00925844 627.57178666 -216 623 C-217.0401123 622.68450195 -218.08022461 622.36900391 -219.15185547 622.04394531 C-265.28921934 607.84896488 -310.09338067 584.88850856 -345.78515625 552.03125 C-347.75839244 550.22158012 -349.77107813 548.48160109 -351.8125 546.75 C-361.46093218 538.31250465 -370.07589751 529.06320656 -378 519 C-378.94157034 517.85735992 -379.885728 516.71684851 -380.83203125 515.578125 C-417.13762622 471.60540033 -437.80173065 415.26777542 -444 359 C-444.0942627 358.19828369 -444.18852539 357.39656738 -444.28564453 356.57055664 C-445.40128991 345.56877638 -445.24296314 334.48350598 -445.25 323.4375 C-445.25100708 322.34318665 -445.25201416 321.24887329 -445.25305176 320.12139893 C-445.24272945 303.53861743 -444.63808142 287.40002593 -442 271 C-441.7831958 269.54762939 -441.7831958 269.54762939 -441.56201172 268.06591797 C-436.38961191 233.52024441 -425.95327916 199.56660395 -411 168 C-410.65904297 167.27651367 -410.31808594 166.55302734 -409.96679688 165.80761719 C-407.75034801 161.14778682 -405.40991894 156.56236331 -403 152 C-402.39551025 150.84685303 -402.39551025 150.84685303 -401.77880859 149.67041016 C-384.92735905 117.69765237 -362.88577445 89.91734859 -337.5 64.3125 C-336.63407227 63.43352051 -335.76814453 62.55454102 -334.87597656 61.64892578 C-328.89968778 55.66476458 -322.63309003 50.24223829 -316 45 C-315.40751465 44.52264404 -314.8150293 44.04528809 -314.20458984 43.5534668 C-240.6899392 -15.56426357 -144.95661244 -32.88202955 0 0 Z M-161 102 C-161 152.82 -161 203.64 -161 256 C-212.48 256 -263.96 256 -317 256 C-317 290.65 -317 325.3 -317 361 C-265.52 361 -214.04 361 -161 361 C-161 411.82 -161 462.64 -161 515 C-126.68 515 -92.36 515 -57 515 C-57 464.18 -57 413.36 -57 361 C-5.52 361 45.96 361 99 361 C99 326.35 99 291.7 99 256 C47.52 256 -3.96 256 -57 256 C-57 205.18 -57 154.36 -57 102 C-91.32 102 -125.64 102 -161 102 Z " fill="#FF6500" transform="translate(708,282)"/>
<path d="M0 0 C1.24920227 -0.00705963 2.49840454 -0.01411926 3.78546143 -0.02139282 C7.79842259 -0.03892116 11.81122728 -0.04608519 15.82421875 -0.046875 C16.50857372 -0.04716957 17.1929287 -0.04746414 17.8980217 -0.04776764 C38.58338589 -0.04920621 59.00353464 0.19171516 79.51171875 3.203125 C80.20388489 3.30258423 80.89605103 3.40204346 81.60919189 3.5045166 C130.42299092 10.53344363 177.90374421 23.35141089 222.80517578 43.96289062 C225.20956376 45.06466683 227.62189064 46.14541902 230.0390625 47.21875 C242.3037493 52.7365638 253.89861272 59.44254609 265.51171875 66.203125 C266.85000732 66.977771 266.85000732 66.977771 268.21533203 67.76806641 C280.09253578 74.66443569 291.44739071 82.06733484 302.51171875 90.203125 C303.08390137 90.62223145 303.65608398 91.04133789 304.24560547 91.47314453 C323.9322134 105.93425856 342.37659653 121.80073051 359.51171875 139.203125 C362.09341302 141.79729122 364.68789246 144.37486977 367.30859375 146.9296875 C372.99259303 152.48939411 378.30009067 158.14432714 383.25 164.3828125 C385.24341467 166.86855583 387.30014475 169.28177394 389.39208984 171.68457031 C405.12367078 189.84459137 418.54172895 210.40238528 430.51171875 231.203125 C431.09469727 232.21463623 431.09469727 232.21463623 431.68945312 233.24658203 C467.41543351 295.59445842 488.69474975 365.52610134 493.51171875 437.203125 C493.6248168 438.69923261 493.73808544 440.19532734 493.8515625 441.69140625 C494.61358488 452.66328939 494.61530131 463.64749991 494.63671875 474.640625 C494.63939758 475.42917877 494.64207642 476.21773254 494.64483643 477.03018188 C494.6506792 479.29490788 494.6489676 481.55949195 494.64453125 483.82421875 C494.64749207 484.85115341 494.64749207 484.85115341 494.6505127 485.89883423 C494.634766 489.14689752 494.50450991 492.09609287 493.51171875 495.203125 C492.52171875 495.203125 491.53171875 495.203125 490.51171875 495.203125 C489.46015436 488.64595236 488.47195002 482.09107024 487.6875 475.49609375 C478.44938404 398.46849883 447.35450709 326.71461875 397.51171875 267.203125 C396.9919043 266.57889648 396.47208984 265.95466797 395.93652344 265.31152344 C390.10529851 258.32502134 384.13742614 251.66297577 377.6171875 245.30859375 C375.91021593 243.60162218 374.37968539 241.9053934 372.88671875 240.015625 C370.32653956 236.98383386 367.55362309 234.54593279 364.5390625 231.98046875 C362.66136743 230.33431989 360.93044177 228.62577384 359.19921875 226.828125 C355.13698136 222.71123868 350.6716323 219.14832563 346.16162109 215.53662109 C344.37578933 214.09326313 342.60903912 212.62855792 340.84375 211.16015625 C331.39906497 203.33374892 321.67102907 196.07566834 311.51171875 189.203125 C310.83028809 188.74196289 310.14885742 188.28080078 309.44677734 187.80566406 C297.81795671 179.99397955 285.75969397 172.99304232 273.51171875 166.203125 C272.74166504 165.7714502 271.97161133 165.33977539 271.17822266 164.89501953 C180.83027761 114.47421167 69.78954602 102.05532354 -29.67578125 129.390625 C-76.99780425 142.84863719 -121.99250441 163.2112277 -162.48828125 191.203125 C-163.34897217 191.79359619 -163.34897217 191.79359619 -164.22705078 192.39599609 C-174.05554092 199.16328936 -183.35227898 206.53173721 -192.48828125 214.203125 C-192.98170013 214.61396332 -193.47511902 215.02480164 -193.98348999 215.4480896 C-202.57055344 222.61179616 -210.70793271 230.1035054 -218.58569336 238.03979492 C-220.31076602 239.77567231 -222.04640116 241.5004759 -223.78320312 243.22460938 C-230.47686199 249.91036931 -236.61622115 256.77653522 -242.48828125 264.203125 C-243.35132318 265.23096593 -244.21972793 266.25437598 -245.09765625 267.26953125 C-261.30400285 286.16707774 -274.58134596 307.28539525 -286.37402344 329.15527344 C-287.38252427 331.00875831 -288.42194369 332.8453376 -289.46484375 334.6796875 C-299.93497589 353.42251664 -307.92176274 373.79323925 -314.48828125 394.203125 C-314.76978027 395.0605127 -315.0512793 395.91790039 -315.34130859 396.80126953 C-327.9471275 435.40439776 -334.02059503 474.72376342 -335.48828125 515.203125 C-335.5229248 516.11336426 -335.55756836 517.02360352 -335.59326172 517.96142578 C-337.37192181 572.30446294 -326.55682575 629.12648169 -305.48828125 679.203125 C-305.08528809 680.16943848 -304.68229492 681.13575195 -304.26708984 682.13134766 C-279.2647062 741.66128028 -240.39840914 796.9288177 -189.48828125 837.203125 C-188.3852683 838.10760908 -187.28379482 839.01397269 -186.18359375 839.921875 C-169.95842532 853.23682893 -152.65944083 864.72939267 -134.48828125 875.203125 C-133.76527832 875.62513184 -133.04227539 876.04713867 -132.29736328 876.48193359 C-109.73017495 889.62054336 -85.96992445 900.1857575 -61.48828125 909.203125 C-60.57981445 909.54037598 -59.67134766 909.87762695 -58.73535156 910.22509766 C-26.20937144 922.14382171 8.5169576 928.62859234 42.89404297 931.89355469 C45.47251651 932.19848888 47.97414978 932.65808984 50.51171875 933.203125 C50.51171875 933.863125 50.51171875 934.523125 50.51171875 935.203125 C47.16107435 936.32000647 44.58921295 936.35745461 41.05712891 936.39599609 C40.40338508 936.40404046 39.74964125 936.41208483 39.076087 936.42037296 C36.90099911 936.4449247 34.72595383 936.46140267 32.55078125 936.4765625 C31.79967512 936.48286242 31.04856899 936.48916233 30.27470207 936.49565315 C24.56206842 936.54246597 18.84952455 936.56599039 13.13671875 936.578125 C11.88241121 936.58091398 11.88241121 936.58091398 10.60276413 936.58375931 C-13.39946427 936.62317373 -36.88653903 936.34783738 -60.50256348 931.59564209 C-62.57883751 931.18522473 -64.65866835 930.80158177 -66.74121094 930.42431641 C-130.49872073 918.84944271 -190.78567877 894.82325968 -244.73828125 858.890625 C-245.83213135 858.16230469 -246.92598145 857.43398438 -248.05297852 856.68359375 C-258.92625308 849.35899906 -269.30909141 841.46171299 -279.48828125 833.203125 C-280.349375 832.51734375 -281.21046875 831.8315625 -282.09765625 831.125 C-287.84995373 826.50321185 -293.34254729 821.67348419 -298.72192383 816.62792969 C-301.53795416 813.9878169 -304.39077542 811.41313039 -307.31640625 808.89453125 C-311.92631597 804.8804602 -316.2409728 800.59736632 -320.55078125 796.265625 C-321.69643555 795.12577148 -321.69643555 795.12577148 -322.86523438 793.96289062 C-327.61401029 789.2059902 -332.11775807 784.30776211 -336.48828125 779.203125 C-337.43772983 778.12015276 -338.38819909 777.03807423 -339.33984375 775.95703125 C-347.14107421 767.01351255 -354.40320457 757.72105469 -361.48828125 748.203125 C-362.02066406 747.49172363 -362.55304688 746.78032227 -363.1015625 746.04736328 C-412.17789669 680.23910371 -443.28006061 601.71165597 -452.80078125 520.203125 C-452.92288467 519.15812332 -452.92288467 519.15812332 -453.04745483 518.0920105 C-463.23551626 429.46810332 -446.74517577 337.34832656 -405.50830078 258.16943359 C-404.41336423 256.05870622 -403.33952752 253.93790599 -402.265625 251.81640625 C-391.93739019 231.59784524 -379.83290961 212.55519068 -366.48828125 194.203125 C-366.05676758 193.60967285 -365.62525391 193.0162207 -365.18066406 192.40478516 C-362.66544797 188.96580256 -360.09109778 185.5761154 -357.48828125 182.203125 C-356.87702393 181.40479248 -356.87702393 181.40479248 -356.25341797 180.59033203 C-338.57962679 157.54073505 -318.74167292 134.94282325 -296.48828125 116.203125 C-295.49957031 115.336875 -294.51085937 114.470625 -293.4921875 113.578125 C-284.47252789 105.690514 -275.09525386 98.35938274 -265.48828125 91.203125 C-264.7715625 90.6654248 -264.05484375 90.12772461 -263.31640625 89.57373047 C-189.0787063 34.04566668 -93.08548169 0.35144502 0 0 Z " fill="#FF6500" transform="translate(492.48828125,43.796875)"/>
</svg>
